<svg xmlns="http://www.w3.org/2000/svg" width="23" height="23" viewBox="0 0 23 23">
  <path id="logo-linkedin" d="M85.161,64h-19.2A1.876,1.876,0,0,0,64,65.791V85.029A2.024,2.024,0,0,0,65.965,87h19.19A1.921,1.921,0,0,0,87,85.029V65.791A1.764,1.764,0,0,0,85.161,64ZM71.129,83.172h-3.3V72.927h3.3ZM69.6,71.369h-.024a1.792,1.792,0,1,1,.024,0Zm13.576,11.8h-3.3v-5.6c0-1.342-.479-2.259-1.672-2.259a1.8,1.8,0,0,0-1.689,1.216,2.218,2.218,0,0,0-.114.809v5.835h-3.3V72.927h3.3v1.426a3.335,3.335,0,0,1,2.972-1.666c2.163,0,3.8,1.426,3.8,4.5Z" transform="translate(-64 -64)" fill="#0077b5"/>
</svg>
