<svg xmlns="http://www.w3.org/2000/svg" width="23" height="23" viewBox="0 0 23 23">
  <path id="twitter-box" d="M7.889,5.333H25.777a2.563,2.563,0,0,1,2.556,2.556V25.777a2.563,2.563,0,0,1-2.556,2.556H7.889a2.563,2.563,0,0,1-2.556-2.556V7.889A2.563,2.563,0,0,1,7.889,5.333m16.24,8.089a6.092,6.092,0,0,0,1.648-1.8,5.655,5.655,0,0,1-1.84.524,3.728,3.728,0,0,0,1.431-1.878,7.186,7.186,0,0,1-2.185.818c-1.981-2.389-6.721-.447-5.878,3.131a9.772,9.772,0,0,1-7.053-3.565,3.671,3.671,0,0,0,1.009,4.574A3.743,3.743,0,0,1,9.8,14.8a3.429,3.429,0,0,0,2.658,3.424,4.279,4.279,0,0,1-1.457.038,3.413,3.413,0,0,0,3.143,2.4,6.876,6.876,0,0,1-4.983,1.38,8.954,8.954,0,0,0,5.469,1.572c5.635-.256,9.4-4.293,9.494-10.2Z" transform="translate(-5.333 -5.333)" fill="#1da1f2"/>
</svg>
