<?xml version="1.0" standalone="no"?>
<!DOCTYPE svg PUBLIC "-//W3C//DTD SVG 20010904//EN"
 "http://www.w3.org/TR/2001/REC-SVG-20010904/DTD/svg10.dtd">
<svg version="1.0" xmlns="http://www.w3.org/2000/svg"
 width="784.000000pt" height="784.000000pt" viewBox="0 0 784.000000 784.000000"
 preserveAspectRatio="xMidYMid meet">
<metadata>
Created by potrace 1.11, written by Peter Selinger 2001-2013
</metadata>
<g transform="translate(0.000000,784.000000) scale(0.100000,-0.100000)"
fill="#000000" stroke="none">
<path d="M22 6520 c2 -5 431 -439 954 -962 523 -524 968 -974 989 -1000 74
-92 146 -229 180 -341 44 -145 56 -352 28 -483 -8 -38 -17 -79 -19 -92 -18
-89 -123 -298 -184 -362 -8 -9 -24 -28 -36 -43 -30 -39 -51 -61 -1014 -1022
-485 -484 -886 -887 -890 -896 -8 -13 35 -15 412 -15 l420 1 316 318 c1182
1188 1664 1663 1714 1690 161 84 361 21 439 -139 29 -62 32 -81 28 -191 -1
-32 -32 -107 -58 -143 -14 -19 -81 -89 -149 -155 -238 -232 -1372 -1369 -1372
-1377 0 -2 23 -5 50 -5 29 0 50 5 50 11 0 8 2 8 8 0 10 -14 384 -14 394 1 5 7
8 7 8 -1 0 -8 53 -11 170 -10 l170 1 298 301 c164 165 334 328 378 361 44 34
123 81 175 106 93 45 236 93 246 83 3 -2 17 0 32 6 35 14 246 18 307 7 27 -5
65 -12 84 -15 71 -12 226 -75 294 -120 39 -26 103 -72 141 -103 39 -31 79 -62
90 -71 24 -19 224 -219 410 -411 l140 -144 422 0 c233 0 423 3 423 8 0 5 -196
203 -436 440 -425 421 -1198 1194 -3602 3600 l-1176 1177 -419 0 c-274 0 -418
-3 -415 -10z"/>
<path d="M1780 6522 c0 -4 152 -159 338 -344 185 -186 1357 -1358 2604 -2605
l2268 -2268 414 0 c228 0 417 3 420 6 3 3 -415 426 -930 940 -515 514 -964
969 -998 1011 -82 101 -144 212 -178 317 -26 78 -32 102 -45 171 -9 52 -11
247 -2 300 5 30 11 69 13 85 7 43 44 151 73 214 23 52 100 178 128 211 42 49
301 311 1078 1090 l872 875 -421 3 -420 2 -997 -997 c-1041 -1042 -1030 -1032
-1132 -1050 -155 -27 -308 61 -361 208 -32 91 -11 222 48 306 13 18 359 366
771 774 411 408 747 746 747 751 0 4 -188 8 -418 8 l-418 0 -295 -293 c-300
-299 -384 -375 -477 -434 -45 -29 -203 -103 -217 -102 -3 0 -30 -7 -60 -15
-29 -9 -80 -19 -112 -23 -72 -9 -245 -9 -298 1 -22 3 -52 9 -67 11 -139 25
-340 124 -451 223 -23 20 -176 171 -341 334 l-298 298 -419 0 c-231 0 -419 -3
-419 -8z"/>
</g>
</svg>
