<svg xmlns="http://www.w3.org/2000/svg" xmlns:xlink="http://www.w3.org/1999/xlink" width="878.267" height="795.804" viewBox="0 0 878.267 795.804">
  <defs>
    <linearGradient id="linear-gradient" x1="0.5" x2="0.5" y2="1" gradientUnits="objectBoundingBox">
      <stop offset="0" stop-color="#05d3aa"/>
      <stop offset="1" stop-color="#25a6e6"/>
    </linearGradient>
  </defs>
  <path id="Union_1" data-name="Union 1" d="M793.58,794.8c-2.223-3.334-47.624-48.082-51.759-52.223a58.817,58.817,0,0,0-6.841-6.461c-2.663-1.94-3.745-3.621-6.7-5.808-10.377-7.658-21.68-14.039-34.4-17.19-25.555-6.331-49.508-4.651-72.982,7.331-5.763,2.944-14.735,8.962-19.313,13.533l-9.768,8.985c-4.055,4.065-49.182,48.549-51.379,51.833H457.633c2.314-3.437,6.815-7.2,9.974-10.369,3.562-3.581,6.582-6.588,10.158-10.168,6.828-6.838,13.08-13.116,19.909-19.953,13.473-13.493,26.374-26.412,39.847-39.9l60.548-59.845c5.866-5.871,14.256-14.4,14.256-25.628,0-7.461-.5-14.859-6.049-21.32l-2.756-3.5c-1.442-1.444-.779-.48-2.26-1.64-.782-.624-.846-.847-1.628-1.5a20.384,20.384,0,0,0-4.484-2.554c-11.186-5.562-26.074-3.945-34.594,4.494C541.189,622.115,371.826,791.1,369.356,794.8H286.543c2.3-3.437,53.254-53.72,57.625-58.084,19.326-19.367,38.076-38.157,57.415-57.511l64.842-64.948c1.325-1.327,2.26-2.147,3.536-3.487l6.9-7.958c2.8-3.791,9.584-13.856,11.146-17.79.872-2.187,1.2-2.76,2.184-4.844,12.771-26.738,9.7-59.218-2.613-85.276-2.475-5.25-9.068-14.6-14.465-21.022C420.337,420.77,323.875,324.733,316.6,317.456L126.379,126.937c-21.29-21.317-42-42.064-63.294-63.368C58.43,58.891,2.407,3.594,0,0H82.813c2.224,3.334,47.624,48.082,51.759,52.223a58.854,58.854,0,0,0,6.841,6.461c2.664,1.94,3.745,3.621,6.7,5.808,10.377,7.658,21.679,14.039,34.4,17.19,25.555,6.331,49.508,4.651,72.982-7.332,5.763-2.943,14.735-8.962,19.312-13.532l9.768-8.985C288.623,47.769,333.75,3.284,335.947,0h82.813c-2.314,3.437-6.815,7.2-9.974,10.368-3.562,3.581-6.582,6.588-10.158,10.168-6.828,6.838-13.081,13.116-19.909,19.954-13.473,13.493-26.373,26.412-39.847,39.9l-60.548,59.845c-5.866,5.871-14.255,14.4-14.255,25.628,0,7.461.5,14.86,6.049,21.32l2.757,3.5c1.441,1.443.779.48,2.26,1.64.782.623.845.847,1.628,1.5a20.408,20.408,0,0,0,4.485,2.554c11.186,5.561,26.074,3.944,34.593-4.494C335.2,172.689,504.567,3.7,507.037,0h82.813c-2.3,3.437-53.254,53.72-57.625,58.084-19.326,19.367-38.076,38.157-57.415,57.51l-64.842,64.949c-1.324,1.327-2.26,2.147-3.535,3.487l-6.9,7.958c-2.8,3.791-9.585,13.856-11.146,17.79-.872,2.187-1.2,2.761-2.184,4.844-12.771,26.738-9.7,59.218,2.613,85.276,2.475,5.25,9.067,14.6,14.464,21.021,52.78,53.112,149.243,149.15,156.52,156.428L750.015,667.867c21.29,21.317,42,42.065,63.294,63.368,4.654,4.678,60.678,59.975,63.085,63.569Z" transform="translate(0.937 0.5)" stroke="rgba(0,0,0,0)" stroke-miterlimit="10" stroke-width="1" fill="url(#linear-gradient)"/>
</svg>
