<svg xmlns="http://www.w3.org/2000/svg" width="67" height="67" viewBox="0 0 67 67">
  <g id="Group_308" data-name="Group 308" transform="translate(-1169 -1654)">
    <rect id="Rectangle_22" data-name="Rectangle 22" width="67" height="67" rx="18" transform="translate(1169 1654)" fill="#f8fccf"/>
    <g id="chat-user" transform="translate(1182 1666.999)">
      <path id="Path_158" data-name="Path 158" d="M30.354,0H13.271A4.277,4.277,0,0,0,9,4.272V5.98a.854.854,0,1,0,1.708,0V4.272a2.566,2.566,0,0,1,2.562-2.562H30.354a2.566,2.566,0,0,1,2.562,2.562v8.542a2.566,2.566,0,0,1-2.562,2.562H27.792a.851.851,0,0,0-.642.292L23.007,20.4l.507-4.066a.853.853,0,0,0-.847-.96h-.854a.855.855,0,0,0-.113,1.7l-.735,5.88a.854.854,0,0,0,.5.885.85.85,0,0,0,.991-.217l5.725-6.541h2.175a4.277,4.277,0,0,0,4.271-4.271V4.272A4.277,4.277,0,0,0,30.354,0Z" transform="translate(6.375)" fill="#9db16f"/>
      <path id="Path_159" data-name="Path 159" d="M26.626,29.13l-5.014-1.254-.383-1.532A9.425,9.425,0,0,0,23.776,21.3a2.194,2.194,0,0,0,1.467-1.8l.335-2.674a2.19,2.19,0,0,0-1.273-2.265l.113-2.315.454-.454c.8-.849,1.462-2.3.092-4.4C23.925,5.8,22.169,5,19.745,5A9.008,9.008,0,0,0,14.62,6.341c-5.807.138-6.6,2.867-6.6,5.53,0,.579.13,1.813.225,2.641A2.191,2.191,0,0,0,6.879,16.82l.335,2.674a2.193,2.193,0,0,0,1.628,1.85,9.48,9.48,0,0,0,2.417,4.877l-.413,1.655L5.832,29.13A7.689,7.689,0,0,0,0,36.6a.85.85,0,0,0,.249.6.863.863,0,0,0,.6.249l30.75,0a.854.854,0,0,0,.854-.854A7.687,7.687,0,0,0,26.626,29.13ZM1.77,35.745a5.984,5.984,0,0,1,4.479-4.959l5.511-1.379a.854.854,0,0,0,.622-.622l.656-2.622a.855.855,0,0,0-.244-.83,7.631,7.631,0,0,1-2.334-4.843.855.855,0,0,0-.852-.786H9.391a.484.484,0,0,1-.478-.424l-.335-2.674a.476.476,0,0,1,.118-.381.6.6,0,0,1,.5-.162.853.853,0,0,0,.847-.96c-.085-.682-.307-2.592-.307-3.236,0-2.065.388-3.777,5.169-3.825a.842.842,0,0,0,.487-.159,7.133,7.133,0,0,1,4.356-1.177c1.813,0,3.087.545,3.791,1.619.813,1.24.5,1.854.111,2.27l-.67.67a.852.852,0,0,0-.249.562l-.162,3.345a.853.853,0,0,0,.842.9.477.477,0,0,1,.36.166.47.47,0,0,1,.114.374l-.335,2.674a.5.5,0,0,1-.545.424.855.855,0,0,0-.852.786,7.593,7.593,0,0,1-2.443,4.942.851.851,0,0,0-.258.842l.629,2.511a.854.854,0,0,0,.622.622l5.511,1.379a5.982,5.982,0,0,1,4.478,4.961Z" transform="translate(0 3.541)" fill="#6f6f6f"/>
    </g>
  </g>
</svg>
