<svg xmlns="http://www.w3.org/2000/svg" width="67" height="67" viewBox="0 0 67 67">
  <g id="Group_307" data-name="Group 307" transform="translate(-1169 -1654)">
    <rect id="Rectangle_22" data-name="Rectangle 22" width="67" height="67" rx="18" transform="translate(1169 1654)" fill="#fbefc7"/>
    <g id="Group_35" data-name="Group 35" transform="translate(138 111.998)">
      <path id="Path_24" data-name="Path 24" d="M1051.7,1595.526l6.221,1.76,10.79-10.955-8.348-8.174L1049.7,1589.19Z" transform="translate(-3.401 -7.853)" fill="#c8bc96"/>
      <g id="syringe" transform="translate(1040.608 1550.502)">
        <path id="Path_22" data-name="Path 22" d="M38.794,15.014l0-.006-.006,0-9.76-9.76,0-.006-.006,0L27.067,3.287a.977.977,0,1,0-1.381,1.381L26.948,5.93l-20.8,20.8a.976.976,0,0,0-.256.928l1.819,7.28L.286,42.364a.977.977,0,0,0,1.381,1.381L9.092,36.32l7.28,1.819a.971.971,0,0,0,.926-.258l20.8-20.8,1.264,1.264a.976.976,0,0,0,1.379-1.381Zm-22.487,21.1L9.6,34.433,7.919,27.721l2.337-2.337,2.73,2.73a.985.985,0,0,0,.692.285.976.976,0,0,0,.69-1.667L11.639,24l2.038-2.038,2.241,2.241A.976.976,0,1,0,17.3,22.825l-2.239-2.241L17.1,18.546l2.73,2.73a.977.977,0,0,0,1.381-1.381l-2.73-2.73,2.038-2.038,2.241,2.241a.976.976,0,1,0,1.379-1.381L21.9,13.746l2.054-2.054,2.73,2.73a.977.977,0,0,0,1.381-1.381l-2.73-2.73,3-3L36.717,15.7Z" transform="translate(0 2.861)" fill="#6f6f6f"/>
        <path id="Path_23" data-name="Path 23" d="M30.868,10.056,21.1.287a.977.977,0,0,0-1.381,1.381L20.979,2.93,16.787,7.123a.977.977,0,1,0,1.379,1.383l4.195-4.195,4.48,4.48-4.193,4.193a.977.977,0,1,0,1.379,1.383l4.195-4.195,1.262,1.262a.977.977,0,0,0,1.383-1.379Z" transform="translate(15.74 -0.001)" fill="#6f6f6f"/>
      </g>
    </g>
  </g>
</svg>
