<?xml version="1.0" encoding="utf-8"?>
<!-- Generator: Adobe Illustrator 25.0.0, SVG Export Plug-In . SVG Version: 6.00 Build 0)  -->
<svg version="1.1" id="map-pin" xmlns="http://www.w3.org/2000/svg" xmlns:xlink="http://www.w3.org/1999/xlink" x="0px" y="0px"
	 viewBox="0 0 47 47" style="enable-background:new 0 0 47 47;" xml:space="preserve">
<style type="text/css">
	.st0{fill:#FFFFFF;}
	.st1{fill:none;}
	.st2{fill:none;stroke:#05D3AA;stroke-width:3;stroke-linecap:round;stroke-linejoin:round;}
	.st3{fill:none;stroke:#2B9FF1;stroke-width:3;stroke-linecap:round;stroke-linejoin:round;}
</style>
<path id="Path_155_1_" class="st0" d="M34.6,32.6L26.3,41c-1.5,1.5-4,1.5-5.5,0c0,0,0,0,0,0l-8.3-8.3c-6.1-6.1-6.1-16.1,0-22.2
	s16.1-6.1,22.2,0C40.7,16.6,40.7,26.5,34.6,32.6z"/>
<path id="Path_154" class="st1" d="M0,0h47v47H0V0z"/>
<circle id="Ellipse_7" class="st2" cx="23.5" cy="21.5" r="6"/>
<path id="Path_155" class="st3" d="M34.6,32.6L26.3,41c-1.5,1.5-4,1.5-5.5,0c0,0,0,0,0,0l-8.3-8.3c-6.1-6.1-6.1-16.1,0-22.2
	s16.1-6.1,22.2,0C40.7,16.6,40.7,26.5,34.6,32.6z"/>
</svg>
