<svg xmlns="http://www.w3.org/2000/svg" width="67" height="67" viewBox="0 0 67 67">
  <g id="Group_306" data-name="Group 306" transform="translate(-393 -1654)">
    <rect id="Rectangle_20" data-name="Rectangle 20" width="67" height="67" rx="18" transform="translate(393 1654)" fill="#d4f9eb"/>
    <g id="Group_21" data-name="Group 21" transform="translate(-656.994 87.384)">
      <circle id="Ellipse_1" data-name="Ellipse 1" cx="9" cy="9" r="9" transform="translate(1073.994 1590.616)" fill="#93c4b1"/>
      <g id="mobile" transform="translate(1069 1576)">
        <path id="Path_16" data-name="Path 16" d="M28.153,0H10.033A5.039,5.039,0,0,0,5,5.033V43.287a5.039,5.039,0,0,0,5.033,5.033h18.12a5.039,5.039,0,0,0,5.033-5.033V5.033A5.039,5.039,0,0,0,28.153,0ZM7.013,10.067h24.16V38.254H7.013Zm3.02-8.053h18.12a3.024,3.024,0,0,1,3.02,3.02v3.02H7.013V5.033A3.024,3.024,0,0,1,10.033,2.013Zm18.12,44.294H10.033a3.024,3.024,0,0,1-3.02-3.02v-3.02h24.16v3.02A3.024,3.024,0,0,1,28.153,46.307Z" transform="translate(-5)" fill="#6f6f6f"/>
        <path id="Path_17" data-name="Path 17" d="M12.007,4.013H14.02A1.007,1.007,0,0,0,14.02,2H12.007a1.007,1.007,0,1,0,0,2.013Z" transform="translate(1.08 2.027)" fill="#6f6f6f"/>
        <path id="Path_18" data-name="Path 18" d="M16.032,4.013a1.007,1.007,0,0,0,0-2.013h-.02a1,1,0,0,0-1,1.007A1.017,1.017,0,0,0,16.032,4.013Z" transform="translate(5.149 2.027)" fill="#6f6f6f"/>
        <path id="Path_19" data-name="Path 19" d="M12.033,21H8.007a1.007,1.007,0,0,0,0,2.013h4.027a1.007,1.007,0,1,0,0-2.013Z" transform="translate(-2.973 21.28)" fill="#93c4b1"/>
        <path id="Path_20" data-name="Path 20" d="M19.033,21H15.007a1.007,1.007,0,1,0,0,2.013h4.027a1.007,1.007,0,0,0,0-2.013Z" transform="translate(4.12 21.28)" fill="#93c4b1"/>
      </g>
    </g>
  </g>
</svg>
